<svg xmlns="http://www.w3.org/2000/svg" viewBox="0 0 62.27 34.61"><defs><style>.cls-1{fill:#fff;}</style></defs><g id="Layer_2" data-name="Layer 2"><g id="Layer_1-2" data-name="Layer 1"><g id="barbell"><g id="Path_4" data-name="Path 4"><path class="cls-1" d="M56.82,5.93h0a5.47,5.47,0,0,0-2.45.6V5.45A5.47,5.47,0,0,0,48.92,0h0a5.48,5.48,0,0,0-5.45,5.45V15.81H18.8V5.45a5.45,5.45,0,0,0-10.9,0V6.53a5.45,5.45,0,0,0-2.46-.6A5.47,5.47,0,0,0,0,11.38V23.24a5.47,5.47,0,0,0,5.44,5.44h0a5.34,5.34,0,0,0,2.45-.59v1.07a5.48,5.48,0,0,0,5.45,5.45h0a5.47,5.47,0,0,0,5.44-5.45V18.81H43.46V29.16a5.45,5.45,0,1,0,10.9,0V28.08a5.36,5.36,0,0,0,2.46.6,5.48,5.48,0,0,0,5.45-5.45V11.37A5.47,5.47,0,0,0,56.82,5.93ZM7.9,23.23a2.45,2.45,0,0,1-4.9,0V11.38a2.45,2.45,0,1,1,4.9,0Zm7.9,5.93a2.45,2.45,0,1,1-4.9,0V5.45a2.45,2.45,0,0,1,4.9,0Zm35.56,0a2.45,2.45,0,1,1-4.9,0V5.45a2.45,2.45,0,0,1,4.9,0Zm7.91-5.93a2.45,2.45,0,0,1-4.9,0V11.38a2.45,2.45,0,0,1,4.9,0Z"/></g></g></g></g></svg>