<svg xmlns="http://www.w3.org/2000/svg" width="62.271" height="34.611" viewBox="0 0 62.271 34.611"><g transform="translate(0.5 -6.5)"><path d="M8.951,39.611h0A3.963,3.963,0,0,1,5,35.66V11.951A3.963,3.963,0,0,1,8.951,8h0A3.963,3.963,0,0,1,12.9,11.951V35.66A3.963,3.963,0,0,1,8.951,39.611Z" transform="translate(3.903)" fill="none" stroke="#fff" stroke-linecap="round" stroke-linejoin="round" stroke-miterlimit="10" stroke-width="3"/><path d="M4.951,30.757h0A3.963,3.963,0,0,1,1,26.805V14.951A3.963,3.963,0,0,1,4.951,11h0A3.963,3.963,0,0,1,8.9,14.951V26.805A3.963,3.963,0,0,1,4.951,30.757Z" transform="translate(0 2.927)" fill="none" stroke="#fff" stroke-linecap="round" stroke-linejoin="round" stroke-miterlimit="10" stroke-width="3"/><path d="M26.951,8h0A3.963,3.963,0,0,1,30.9,11.951V35.66a3.963,3.963,0,0,1-3.951,3.951h0A3.963,3.963,0,0,1,23,35.66V11.951A3.963,3.963,0,0,1,26.951,8Z" transform="translate(21.465)" fill="none" stroke="#fff" stroke-linecap="round" stroke-linejoin="round" stroke-miterlimit="10" stroke-width="3"/><path d="M30.951,11h0A3.963,3.963,0,0,1,34.9,14.951V26.805a3.963,3.963,0,0,1-3.951,3.951h0A3.963,3.963,0,0,1,27,26.805V14.951A3.963,3.963,0,0,1,30.951,11Z" transform="translate(25.368 2.927)" fill="none" stroke="#fff" stroke-linecap="round" stroke-linejoin="round" stroke-miterlimit="10" stroke-width="3"/><line x2="27.569" transform="translate(16.798 23.813)" fill="none" stroke="#fff" stroke-linecap="round" stroke-linejoin="round" stroke-miterlimit="10" stroke-width="3"/></g></svg>