<svg xmlns="http://www.w3.org/2000/svg" width="51.093" height="51.94" viewBox="0 0 51.093 51.94"><path d="M53.309,37.837a2.5,2.5,0,0,1-2.5,2.5H43.479a2.416,2.416,0,0,1-2.372-1.623l-1.873-5.244L33.116,54.13a2.53,2.53,0,0,1-2.372,1.81h-.062a2.53,2.53,0,0,1-2.372-1.935l-8.053-34.9L15.388,38.524a2.374,2.374,0,0,1-2.435,1.81H6.713a2.5,2.5,0,1,1,0-4.994h4.3L17.947,7.81A2.423,2.423,0,0,1,20.382,6a2.588,2.588,0,0,1,2.435,1.935l8.24,35.707,5.618-18.977a2.456,2.456,0,0,1,2.31-1.81,2.5,2.5,0,0,1,2.435,1.623L45.227,35.34h5.585A2.5,2.5,0,0,1,53.309,37.837Z" transform="translate(-3.216 -5)" fill="#fff" stroke="#73d493" stroke-width="2"/></svg>