<svg xmlns="http://www.w3.org/2000/svg" width="66.09" height="67.357" viewBox="0 0 66.09 67.357"><g transform="translate(24.09 -1.846) rotate(30)"><circle cx="7.165" cy="7.165" r="7.165" transform="translate(18.352 19.122)" fill="none" stroke="#fff" stroke-linecap="round" stroke-linejoin="round" stroke-miterlimit="10" stroke-width="4"/><path d="M46.58,16.2l-1.791-3.1a3.582,3.582,0,0,0-4.894-1.311l-.942.545a5.375,5.375,0,0,1-8.061-4.654V6.583A3.582,3.582,0,0,0,27.309,3H23.726a3.582,3.582,0,0,0-3.583,3.583V7.672a5.374,5.374,0,0,1-8.061,4.654l-.942-.545a3.582,3.582,0,0,0-4.894,1.311L4.454,16.2a3.582,3.582,0,0,0,1.311,4.894l.942.545a5.374,5.374,0,0,1,0,9.308l-.942.545A3.582,3.582,0,0,0,4.454,36.38l1.791,3.1a3.582,3.582,0,0,0,4.894,1.311l.942-.545A5.374,5.374,0,0,1,20.143,44.9v1.089a3.582,3.582,0,0,0,3.583,3.583h3.583a3.582,3.582,0,0,0,3.583-3.583V44.9a5.374,5.374,0,0,1,8.061-4.654l.942.545a3.582,3.582,0,0,0,4.894-1.311l1.791-3.1a3.582,3.582,0,0,0-1.311-4.894l-.942-.545a5.374,5.374,0,0,1,0-9.308l.942-.545A3.581,3.581,0,0,0,46.58,16.2Z" transform="translate(0)" fill="none" stroke="#fff" stroke-linecap="round" stroke-linejoin="round" stroke-miterlimit="10" stroke-width="4"/></g></svg>