<svg xmlns="http://www.w3.org/2000/svg" width="37.415" height="52.381" viewBox="0 0 37.415 52.381"><g transform="translate(-6 -2)"><path d="M34.061,43.061H15.354A9.354,9.354,0,0,1,6,33.708V31.837A16.837,16.837,0,0,1,22.837,15h3.742A16.837,16.837,0,0,1,43.415,31.837v1.871a9.354,9.354,0,0,1-9.354,9.354ZM22.837,18.742a13.1,13.1,0,0,0-13.1,13.1v1.871a5.612,5.612,0,0,0,5.612,5.612H34.061a5.612,5.612,0,0,0,5.612-5.612V31.837a13.1,13.1,0,0,0-13.1-13.1Z" transform="translate(0 11.32)" fill="#fff"/><path d="M21.225,24.449A11.225,11.225,0,1,1,32.449,13.225,11.225,11.225,0,0,1,21.225,24.449Zm0-18.708a7.483,7.483,0,1,0,7.483,7.483A7.483,7.483,0,0,0,21.225,5.742Z" transform="translate(3.483)" fill="#fff"/></g></svg>